<?xml version="1.0" encoding="UTF-8" standalone="no"?>
<!-- Created with Inkscape (http://www.inkscape.org/) -->

<svg
   xmlns:dc="http://purl.org/dc/elements/1.1/"
   xmlns:cc="http://creativecommons.org/ns#"
   xmlns:rdf="http://www.w3.org/1999/02/22-rdf-syntax-ns#"
   xmlns:svg="http://www.w3.org/2000/svg"
   xmlns="http://www.w3.org/2000/svg"
   xmlns:sodipodi="http://sodipodi.sourceforge.net/DTD/sodipodi-0.dtd"
   xmlns:inkscape="http://www.inkscape.org/namespaces/inkscape"
   width="65.182076"
   height="50.6227"
   viewBox="0 0 65.182076 50.6227"
   version="1.1"
   id="SVGRoot"
   sodipodi:docname="libretuner.svg"
   inkscape:version="">
  <sodipodi:namedview
     id="base"
     pagecolor="#ffffff"
     bordercolor="#666666"
     borderopacity="1.0"
     inkscape:pageopacity="0.0"
     inkscape:pageshadow="2"
     inkscape:zoom="11.313709"
     inkscape:cx="26.064567"
     inkscape:cy="22.268231"
     inkscape:document-units="px"
     inkscape:current-layer="layer1"
     showgrid="false"
     inkscape:window-width="1920"
     inkscape:window-height="1024"
     inkscape:window-x="0"
     inkscape:window-y="0"
     inkscape:window-maximized="1"
     inkscape:grid-bbox="true"
     showguides="false"
     inkscape:snap-nodes="true"
     inkscape:object-paths="true"
     inkscape:snap-smooth-nodes="true"
     inkscape:snap-object-midpoints="true"
     inkscape:snap-center="false"
     inkscape:snap-intersection-paths="true"
     inkscape:snap-global="true"
     inkscape:snap-bbox="false"
     inkscape:snap-bbox-midpoints="false"
     inkscape:guide-bbox="true"
     inkscape:measure-start="57.2734,39.7656"
     inkscape:measure-end="58.1485,39.0787"
     inkscape:snap-others="true"
     inkscape:object-nodes="true"
     inkscape:bbox-paths="true"
     inkscape:bbox-nodes="true"
     fit-margin-top="0"
     fit-margin-left="0"
     fit-margin-right="0"
     fit-margin-bottom="0">
    <sodipodi:guide
       position="23.571598,23.571597"
       orientation="0,1"
       id="guide7227"
       inkscape:locked="false" />
    <sodipodi:guide
       position="40.621198,35.833713"
       orientation="0,1"
       id="guide7257"
       inkscape:locked="false" />
    <sodipodi:guide
       position="42.159663,35.833713"
       orientation="1,0"
       id="guide7259"
       inkscape:locked="false" />
  </sodipodi:namedview>
  <defs
     id="defs5069" />
  <metadata
     id="metadata5072">
    <rdf:RDF>
      <cc:Work
         rdf:about="">
        <dc:format>image/svg+xml</dc:format>
        <dc:type
           rdf:resource="http://purl.org/dc/dcmitype/StillImage" />
        <dc:title></dc:title>
      </cc:Work>
    </rdf:RDF>
  </metadata>
  <g
     id="layer1"
     inkscape:groupmode="layer"
     inkscape:label="Layer 1"
     transform="translate(0.45923448,0.72283751)">
    <path
       style="fill:none;stroke:#000000;stroke-width:2.60555553;stroke-linecap:butt;stroke-linejoin:miter;stroke-miterlimit:4;stroke-dasharray:none;stroke-opacity:1"
       d="M 23.112362,4.0595798 H 56.634758"
       inkscape:connector-curvature="0"
       id="path5690"
       sodipodi:nodetypes="cc" />
    <path
       style="opacity:1;fill:none;fill-opacity:1;stroke:#000000;stroke-width:2.60555553;stroke-linecap:round;stroke-miterlimit:4;stroke-dasharray:none;stroke-opacity:1;paint-order:normal"
       d="m 31.836973,26.317389 a 8.7246113,8.7246113 0 0 1 -8.724611,8.724611 8.7246113,8.7246113 0 0 1 -8.724611,-8.724611 8.7246113,8.7246113 0 0 1 8.724611,-8.724612 8.7246113,8.7246113 0 0 1 8.724611,8.724612 z"
       id="path5694"
       inkscape:connector-curvature="0" />
    <path
       style="opacity:1;fill:none;fill-opacity:1;stroke:#000000;stroke-width:1.30277777;stroke-linecap:round;stroke-miterlimit:4;stroke-dasharray:none;stroke-opacity:1;paint-order:normal"
       d="M 35.363601,26.317389 A 12.251239,12.251239 0 0 1 23.112362,38.568627 12.251239,12.251239 0 0 1 10.861123,26.317389 12.251239,12.251239 0 0 1 23.112362,14.06615 12.251239,12.251239 0 0 1 35.363601,26.317389 Z"
       id="path5696"
       inkscape:connector-curvature="0" />
    <path
       style="opacity:1;fill:none;fill-opacity:1;stroke:#000000;stroke-width:1.30277777;stroke-linecap:round;stroke-miterlimit:4;stroke-dasharray:none;stroke-opacity:1;paint-order:normal"
       d="m 27.606899,26.317389 a 4.4945374,4.3495522 0 0 1 -4.494537,4.349552 4.4945374,4.3495522 0 0 1 -4.494537,-4.349552 4.4945374,4.3495522 0 0 1 4.494537,-4.349553 4.4945374,4.3495522 0 0 1 4.494537,4.349553 z"
       id="path5698"
       inkscape:connector-curvature="0" />
    <path
       style="opacity:1;fill:none;fill-opacity:1;stroke:#000000;stroke-width:1.30277777;stroke-linecap:round;stroke-miterlimit:4;stroke-dasharray:none;stroke-opacity:1;paint-order:normal"
       d="m 24.727051,26.317389 a 1.6146888,1.6146888 0 0 1 -1.614689,1.614688 1.6146888,1.6146888 0 0 1 -1.614689,-1.614688 1.6146888,1.6146888 0 0 1 1.614689,-1.614689 1.6146888,1.6146888 0 0 1 1.614689,1.614689 z"
       id="path5700"
       inkscape:connector-curvature="0" />
    <path
       style="fill:none;stroke:#000000;stroke-width:1.30277777;stroke-linecap:butt;stroke-linejoin:miter;stroke-miterlimit:4;stroke-dasharray:none;stroke-opacity:1"
       d="m 23.112362,21.967836 c 0,0 0.04665,-1.966978 0.28193,-2.885018 0.135508,-0.528752 0.721424,-1.432157 0.721424,-1.432157"
       id="path5750"
       inkscape:connector-curvature="0"
       sodipodi:nodetypes="csc"
       inkscape:transform-center-x="-0.50121089"
       inkscape:transform-center-y="-6.5069198"
       inkscape:label="Turbine" />
    <path
       inkscape:label="Turbine"
       inkscape:transform-center-y="-5.8857633"
       inkscape:transform-center-x="2.8245759"
       sodipodi:nodetypes="csc"
       inkscape:connector-curvature="0"
       id="path5752"
       d="m 20.938257,22.550635 c 0,0 -0.943085,-1.726776 -1.19835,-2.639466 -0.147023,-0.525665 -0.0913,-1.600994 -0.0913,-1.600994"
       style="fill:none;stroke:#000000;stroke-width:1.30277777;stroke-linecap:butt;stroke-linejoin:miter;stroke-miterlimit:4;stroke-dasharray:none;stroke-opacity:1" />
    <path
       style="fill:none;stroke:#000000;stroke-width:1.30277777;stroke-linecap:butt;stroke-linejoin:miter;stroke-miterlimit:4;stroke-dasharray:none;stroke-opacity:1"
       d="m 19.346828,24.142407 c 0,0 -1.680126,-1.023889 -2.357535,-1.68667 -0.390157,-0.381728 -0.879569,-1.340848 -0.879569,-1.340848"
       id="path5754"
       inkscape:connector-curvature="0"
       sodipodi:nodetypes="csc"
       inkscape:transform-center-x="5.3845521"
       inkscape:transform-center-y="-3.6875203"
       inkscape:label="Turbine" />
    <path
       inkscape:label="Turbine"
       inkscape:transform-center-y="-0.50121076"
       inkscape:transform-center-x="6.5069191"
       sodipodi:nodetypes="csc"
       inkscape:connector-curvature="0"
       id="path5756"
       d="m 18.764495,26.316635 c 0,0 -1.966976,-0.04666 -2.885019,-0.281931 -0.528751,-0.135507 -1.432153,-0.721424 -1.432153,-0.721424"
       style="fill:none;stroke:#000000;stroke-width:1.30277777;stroke-linecap:butt;stroke-linejoin:miter;stroke-miterlimit:4;stroke-dasharray:none;stroke-opacity:1" />
    <path
       style="fill:none;stroke:#000000;stroke-width:1.30277777;stroke-linecap:butt;stroke-linejoin:miter;stroke-miterlimit:4;stroke-dasharray:none;stroke-opacity:1"
       d="m 19.347295,28.490738 c 0,0 -1.726777,0.943088 -2.639466,1.198351 -0.525665,0.147023 -1.600994,0.0913 -1.600994,0.0913"
       id="path5758"
       inkscape:connector-curvature="0"
       sodipodi:nodetypes="csc"
       inkscape:transform-center-x="5.8857631"
       inkscape:transform-center-y="2.8245751"
       inkscape:label="Turbine" />
    <path
       inkscape:label="Turbine"
       inkscape:transform-center-y="5.3845517"
       inkscape:transform-center-x="3.6875216"
       sodipodi:nodetypes="csc"
       inkscape:connector-curvature="0"
       id="path5760"
       d="m 20.939065,30.082167 c 0,0 -1.023888,1.680128 -1.686668,2.357537 -0.38173,0.390157 -1.340849,0.879569 -1.340849,0.879569"
       style="fill:none;stroke:#000000;stroke-width:1.30277777;stroke-linecap:butt;stroke-linejoin:miter;stroke-miterlimit:4;stroke-dasharray:none;stroke-opacity:1" />
    <path
       style="fill:none;stroke:#000000;stroke-width:1.30277777;stroke-linecap:butt;stroke-linejoin:miter;stroke-miterlimit:4;stroke-dasharray:none;stroke-opacity:1"
       d="m 23.113294,30.664501 c 0,0 -0.04666,1.966977 -0.28193,2.885021 -0.135509,0.52875 -0.721425,1.432153 -0.721425,1.432153"
       id="path5762"
       inkscape:connector-curvature="0"
       sodipodi:nodetypes="csc"
       inkscape:transform-center-x="0.50121163"
       inkscape:transform-center-y="6.5069197"
       inkscape:label="Turbine" />
    <path
       inkscape:label="Turbine"
       inkscape:transform-center-y="5.8857637"
       inkscape:transform-center-x="-2.8245745"
       sodipodi:nodetypes="csc"
       inkscape:connector-curvature="0"
       id="path5764"
       d="m 25.287396,30.081703 c 0,0 0.943089,1.726776 1.198355,2.639465 0.147019,0.525664 0.0913,1.600993 0.0913,1.600993"
       style="fill:none;stroke:#000000;stroke-width:1.30277777;stroke-linecap:butt;stroke-linejoin:miter;stroke-miterlimit:4;stroke-dasharray:none;stroke-opacity:1" />
    <path
       style="fill:none;stroke:#000000;stroke-width:1.30277777;stroke-linecap:butt;stroke-linejoin:miter;stroke-miterlimit:4;stroke-dasharray:none;stroke-opacity:1"
       d="m 26.878827,28.489931 c 0,0 1.680126,1.023889 2.357537,1.68667 0.390155,0.381727 0.879569,1.340847 0.879569,1.340847"
       id="path5766"
       inkscape:connector-curvature="0"
       sodipodi:nodetypes="csc"
       inkscape:transform-center-x="-5.3845519"
       inkscape:transform-center-y="3.6875212"
       inkscape:label="Turbine" />
    <path
       inkscape:label="Turbine"
       inkscape:transform-center-y="0.50121124"
       inkscape:transform-center-x="-6.5069204"
       sodipodi:nodetypes="csc"
       inkscape:connector-curvature="0"
       id="path5768"
       d="m 27.461162,26.315703 c 0,0 1.966975,0.04666 2.885019,0.28193 0.528749,0.135508 1.432154,0.721423 1.432154,0.721423"
       style="fill:none;stroke:#000000;stroke-width:1.30277777;stroke-linecap:butt;stroke-linejoin:miter;stroke-miterlimit:4;stroke-dasharray:none;stroke-opacity:1" />
    <path
       style="fill:none;stroke:#000000;stroke-width:1.30277777;stroke-linecap:butt;stroke-linejoin:miter;stroke-miterlimit:4;stroke-dasharray:none;stroke-opacity:1"
       d="m 26.878363,24.141599 c 0,0 1.726776,-0.943088 2.639466,-1.198352 0.525663,-0.147022 1.600992,-0.0913 1.600992,-0.0913"
       id="path5770"
       inkscape:connector-curvature="0"
       sodipodi:nodetypes="csc"
       inkscape:transform-center-x="-5.8857639"
       inkscape:transform-center-y="-2.8245749"
       inkscape:label="Turbine" />
    <path
       inkscape:label="Turbine"
       inkscape:transform-center-y="-5.3845518"
       inkscape:transform-center-x="-3.6875229"
       sodipodi:nodetypes="csc"
       inkscape:connector-curvature="0"
       id="path5772"
       d="m 25.286593,22.550169 c 0,0 1.023888,-1.680125 1.686667,-2.357535 0.381727,-0.390157 1.340849,-0.87957 1.340849,-0.87957"
       style="fill:none;stroke:#000000;stroke-width:1.30277777;stroke-linecap:butt;stroke-linejoin:miter;stroke-miterlimit:4;stroke-dasharray:none;stroke-opacity:1" />
    <path
       style="fill:none;stroke:#000000;stroke-width:2.60555553;stroke-linecap:round;stroke-linejoin:miter;stroke-miterlimit:4;stroke-dasharray:none;stroke-opacity:1"
       d="M 56.634759,14.066149 H 35.73395"
       id="path5784"
       inkscape:connector-curvature="0"
       sodipodi:nodetypes="cc" />
    <path
       style="opacity:1;fill:none;fill-opacity:1;stroke:#000000;stroke-width:2.60555553;stroke-linecap:round;stroke-miterlimit:4;stroke-dasharray:none;stroke-opacity:1;paint-order:normal"
       d="m 57.651224,0.57994026 h 4.75237 c 0.563122,0 1.016466,0.45334384 1.016466,1.01646604 V 16.529317 c 0,0.563123 -0.453344,1.016466 -1.016466,1.016466 h -4.75237 c -0.563122,0 -1.016466,-0.453343 -1.016466,-1.016466 V 1.5964063 c 0,-0.5631222 0.453344,-1.01646604 1.016466,-1.01646604 z"
       id="rect5792"
       inkscape:connector-curvature="0" />
    <path
       style="opacity:1;fill:none;fill-opacity:1;stroke:#000000;stroke-width:2.60582399;stroke-linecap:round;stroke-miterlimit:4;stroke-dasharray:none;stroke-opacity:1;paint-order:normal"
       d="m 41.706856,14.070662 c 2.322277,3.515744 3.67419,7.728795 3.67419,12.257602 0,12.298655 -9.970029,22.268685 -22.268684,22.268685 -12.298655,0 -22.26868503,-9.97003 -22.26868448,-22.268685 C 0.84367741,14.029609 10.813707,4.0595798 23.112362,4.0595798"
       id="path7244"
       inkscape:connector-curvature="0"
       sodipodi:nodetypes="csssc" />
  </g>
</svg>
